<?xml version="1.0" standalone="no"?>
<!DOCTYPE svg PUBLIC "-//W3C//DTD SVG 20010904//EN"
 "http://www.w3.org/TR/2001/REC-SVG-20010904/DTD/svg10.dtd">
<svg version="1.0" xmlns="http://www.w3.org/2000/svg"
 width="225.000000pt" height="225.000000pt" viewBox="0 0 225.000000 225.000000"
 preserveAspectRatio="xMidYMid meet">
<metadata>
Created by potrace 1.10, written by Peter Selinger 2001-2011
</metadata>
<g transform="translate(0.000000,225.000000) scale(0.100000,-0.100000)"
fill="#000000" stroke="none">
<path d="M895 1735 c-78 -58 -124 -106 -134 -139 -32 -101 -127 -710 -138
-883 l-6 -91 54 -57 c30 -32 68 -64 86 -71 48 -21 510 -20 559 1 40 16 159
127 179 165 7 14 18 70 24 125 7 55 19 138 27 185 18 111 18 111 -11 143 l-26
27 -162 0 c-158 0 -163 -1 -189 -25 -27 -24 -31 -42 -44 -163 -8 -86 -24 -67
-31 39 -6 75 -9 87 -35 112 -36 37 -35 50 5 78 39 28 56 49 57 69 0 8 16 47
35 85 38 79 43 66 20 -46 l-15 -72 27 -30 28 -29 135 6 c170 8 204 13 224 35
10 11 31 92 53 204 l36 186 -29 43 c-16 23 -43 56 -61 74 -42 42 -36 42 -463
60 l-155 7 -50 -38z m310 -10 c77 -3 179 -8 228 -11 l87 -7 49 -61 49 -61 -37
-186 -36 -187 -115 -6 c-234 -13 -251 -12 -244 22 19 87 68 271 89 331 14 41
23 76 22 78 -2 2 -31 -33 -64 -78 -67 -90 -127 -202 -153 -288 -10 -31 -24
-56 -31 -57 -8 0 -23 -2 -34 -2 -15 -2 -24 -16 -37 -59 -9 -32 -16 -59 -14
-60 1 -1 18 -3 38 -4 l35 -3 6 -81 c7 -103 30 -191 71 -280 l33 -70 5 214 c4
166 8 215 19 222 17 11 346 12 353 1 2 -4 0 -29 -5 -55 -5 -27 -18 -119 -29
-205 l-20 -156 -77 -78 -78 -78 -275 0 -276 0 -58 59 -58 59 11 103 c32 283
121 832 140 867 5 8 41 40 82 73 74 59 74 59 129 54 30 -2 118 -7 195 -10z"/>
</g>
</svg>
